ffmpeg started on 2025-06-19 at 10:17:59
Report written to "D:\Convert\FFMetrics\reports\ssim_report-6.txt"
Log level: 32
Command line:
ffmpeg -hide_banner -nostdin -i "G:\\\xc0\xed\xe8\xec\xe5\\[\xd2\xee\xef-4]\\RErideD - \xc4\xe5\xf0\xf0\xe8\xe4\xe0, \xef\xee\xea\xee\xf0\xe8\xe2\xf8\xe8\xe9 \xe2\xf0\xe5\xec\xff\\RErideD_Koku_Koe_no_Derrida_[04]_[AniLibria_TV]_[WEBRip_720p]_HEVC.mkv" -i "G:\\\xc0\xed\xe8\xec\xe5\\[\xd2\xee\xef-4]\\RErideD - \xc4\xe5\xf0\xf0\xe8\xe4\xe0, \xef\xee\xea\xee\xf0\xe8\xe2\xf8\xe8\xe9 \xe2\xf0\xe5\xec\xff\\RErideD_Koku_Koe_no_Derrida_[04]_[AniLibria_TV]_[WEBRip_720p].mkv" -lavfi "[0:v]settb=AVTB,setpts=PTS-STARTPTS,format=pix_fmts=yuv420p10,fps=24000/1001,scale=1280:720:flags=bicubic[main];[1:v]settb=AVTB,setpts=PTS-STARTPTS,format=pix_fmts=yuv420p,fps=24000/1001,scale=1280:720:flags=bicubic[ref];[main][ref]ssim=eof_action=endall:stats_file='D\\:/Convert/FFMetrics/logs/ssim_logfile-6.txt'" -f null -
Input #0, matroska,webm, from 'G:\Аниме\[Топ-4]\RErideD - Деррида, покоривший время\RErideD_Koku_Koe_no_Derrida_[04]_[AniLibria_TV]_[WEBRip_720p]_HEVC.mkv':
  Metadata:
    ENCODER         : Lavf61.7.100
  Duration: 00:23:40.04, start: -0.021000, bitrate: 587 kb/s
  Stream #0:0(jpn): Video: hevc (Main 10), yuv420p10le(tv, bt709, progressive), 1280x720 [SAR 1:1 DAR 16:9], 23.98 fps, 23.98 tbr, 1k tbn
      Metadata:
        ENCODER         : Lavc61.19.100 libx265
        BPS             : 388837
        DURATION        : 00:23:39.960708333
        NUMBER_OF_FRAMES: 34045
        NUMBER_OF_BYTES : 69016799
        _STATISTICS_WRITING_APP: mkvpropedit v66.0.0 ('Josie') 64-bit
        _STATISTICS_WRITING_DATE_UTC: 2025-06-17 15:07:50
        _STATISTICS_TAGS: BPS DURATION NUMBER_OF_FRAMES NUMBER_OF_BYTES
  Stream #0:1(rus): Audio: aac (LC), 48000 Hz, stereo, fltp (default) (forced)
      Metadata:
        title           : AniLibria.TV
        ENCODER         : Lavc61.19.100 aac
        BPS             : 194836
        DURATION        : 00:23:39.989000000
        NUMBER_OF_FRAMES: 66563
        NUMBER_OF_BYTES : 34583244
        _STATISTICS_WRITING_APP: mkvpropedit v66.0.0 ('Josie') 64-bit
        _STATISTICS_WRITING_DATE_UTC: 2025-06-17 15:07:50
        _STATISTICS_TAGS: BPS DURATION NUMBER_OF_FRAMES NUMBER_OF_BYTES
  Stream #0:2(rus): Subtitle: ass (ssa)
      Metadata:
        title           : Полные субтитры
        BPS             : 143
        DURATION        : 00:20:47.580000000
        NUMBER_OF_FRAMES: 314
        NUMBER_OF_BYTES : 22320
        _STATISTICS_WRITING_APP: mkvpropedit v66.0.0 ('Josie') 64-bit
        _STATISTICS_WRITING_DATE_UTC: 2025-06-17 15:07:50
        _STATISTICS_TAGS: BPS DURATION NUMBER_OF_FRAMES NUMBER_OF_BYTES
Input #1, matroska,webm, from 'G:\Аниме\[Топ-4]\RErideD - Деррида, покоривший время\RErideD_Koku_Koe_no_Derrida_[04]_[AniLibria_TV]_[WEBRip_720p].mkv':
  Metadata:
    encoder         : libebml v1.4.2 + libmatroska v1.6.4
    creation_time   : 2024-12-15T11:01:40.000000Z
  Duration: 00:23:40.05, start: 0.000000, bitrate: 1563 kb/s
  Stream #1:0(jpn): Video: h264 (High), yuv420p(progressive), 1280x720 [SAR 1:1 DAR 16:9], 23.98 fps, 23.98 tbr, 1k tbn
      Metadata:
        BPS             : 1363913
        DURATION        : 00:23:39.962000000
        NUMBER_OF_FRAMES: 34045
        NUMBER_OF_BYTES : 242088210
        _STATISTICS_WRITING_APP: mkvmerge v66.0.0 ('Josie') 64-bit
        _STATISTICS_WRITING_DATE_UTC: 2024-12-15 11:01:40
        _STATISTICS_TAGS: BPS DURATION NUMBER_OF_FRAMES NUMBER_OF_BYTES
  Stream #1:1(rus): Audio: aac (LC), 48000 Hz, stereo, fltp (default) (forced)
      Metadata:
        title           : AniLibria.TV
        BPS             : 195593
        DURATION        : 00:23:39.989000000
        NUMBER_OF_FRAMES: 66562
        NUMBER_OF_BYTES : 34717665
        _STATISTICS_WRITING_APP: mkvmerge v66.0.0 ('Josie') 64-bit
        _STATISTICS_WRITING_DATE_UTC: 2024-12-15 11:01:40
        _STATISTICS_TAGS: BPS DURATION NUMBER_OF_FRAMES NUMBER_OF_BYTES
  Stream #1:2(rus): Subtitle: ass (ssa)
      Metadata:
        title           : Полные субтитры
        BPS             : 143
        DURATION        : 00:20:47.580000000
        NUMBER_OF_FRAMES: 314
        NUMBER_OF_BYTES : 22320
        _STATISTICS_WRITING_APP: mkvmerge v66.0.0 ('Josie') 64-bit
        _STATISTICS_WRITING_DATE_UTC: 2024-12-15 11:01:40
        _STATISTICS_TAGS: BPS DURATION NUMBER_OF_FRAMES NUMBER_OF_BYTES
  Stream #1:3: Attachment: ttf
      Metadata:
        filename        : OpenSans-Semibold.ttf
        mimetype        : application/x-truetype-font
Stream mapping:
  Stream #0:0 (hevc) -> settb:default
  Stream #1:0 (h264) -> settb:default
  ssim:default -> Stream #0:0 (wrapped_avframe)
  Stream #0:1 -> #0:1 (aac (native) -> pcm_s16le (native))
[swscaler @ 0000011941258bc0] No accelerated colorspace conversion found from yuv420p to bgr48le.
[swscaler @ 000001193e384b00] No accelerated colorspace conversion found from yuv420p to bgr48le.
[swscaler @ 00000119414dcc80] No accelerated colorspace conversion found from yuv420p to bgr48le.
[swscaler @ 00000119415e8ec0] No accelerated colorspace conversion found from yuv420p to bgr48le.
[swscaler @ 00000119416acac0] No accelerated colorspace conversion found from yuv420p to bgr48le.
[swscaler @ 000001194184f080] No accelerated colorspace conversion found from yuv420p to bgr48le.
[swscaler @ 000001193f2d5d40] No accelerated colorspace conversion found from yuv420p to bgr48le.
[swscaler @ 000001193f2efd00] No accelerated colorspace conversion found from yuv420p to bgr48le.
[swscaler @ 0000011941b7b7c0] No accelerated colorspace conversion found from yuv420p to bgr48le.
[swscaler @ 0000011941c2f040] No accelerated colorspace conversion found from yuv420p to bgr48le.
[swscaler @ 00000119457900c0] No accelerated colorspace conversion found from yuv420p to bgr48le.
[swscaler @ 00000119457ec040] No accelerated colorspace conversion found from yuv420p to bgr48le.
[swscaler @ 0000011945849040] No accelerated colorspace conversion found from yuv420p to bgr48le.
[swscaler @ 00000119458c5040] No accelerated colorspace conversion found from yuv420p to bgr48le.
[swscaler @ 0000011945924040] No accelerated colorspace conversion found from yuv420p to bgr48le.
[swscaler @ 0000011945981040] No accelerated colorspace conversion found from yuv420p to bgr48le.
Output #0, null, to 'pipe:':
  Metadata:
    encoder         : Lavf61.7.100
  Stream #0:0: Video: wrapped_avframe, yuv420p10le(tv, bt709, progressive), 1280x720 [SAR 1:1 DAR 16:9], q=2-31, 200 kb/s, 23.98 fps, 23.98 tbn
      Metadata:
        encoder         : Lavc61.19.100 wrapped_avframe
  Stream #0:1(rus): Audio: pcm_s16le, 48000 Hz, stereo, s16, 1536 kb/s (default) (forced)
      Metadata:
        title           : AniLibria.TV
        _STATISTICS_TAGS: BPS DURATION NUMBER_OF_FRAMES NUMBER_OF_BYTES
        BPS             : 194836
        DURATION        : 00:23:39.989000000
        NUMBER_OF_FRAMES: 66563
        NUMBER_OF_BYTES : 34583244
        _STATISTICS_WRITING_APP: mkvpropedit v66.0.0 ('Josie') 64-bit
        _STATISTICS_WRITING_DATE_UTC: 2025-06-17 15:07:50
        encoder         : Lavc61.19.100 pcm_s16le
frame=   83 fps=0.0 q=-0.0 size=N/A time=00:00:03.46 bitrate=N/A speed=6.74x    frame=  174 fps=170 q=-0.0 size=N/A time=00:00:07.25 bitrate=N/A speed=7.09x    frame=  269 fps=175 q=-0.0 size=N/A time=00:00:11.21 bitrate=N/A speed=7.31x    frame=  363 fps=176 q=-0.0 size=N/A time=00:00:15.14 bitrate=N/A speed=7.35x    frame=  455 fps=177 q=-0.0 size=N/A time=00:00:18.97 bitrate=N/A speed=7.39x    frame=  548 fps=178 q=-0.0 size=N/A time=00:00:22.85 bitrate=N/A speed=7.42x    frame=  646 fps=179 q=-0.0 size=N/A time=00:00:26.94 bitrate=N/A speed=7.47x    frame=  740 fps=180 q=-0.0 size=N/A time=00:00:30.86 bitrate=N/A speed=7.49x    frame=  834 fps=180 q=-0.0 size=N/A time=00:00:34.78 bitrate=N/A speed=7.52x    frame=  926 fps=180 q=-0.0 size=N/A time=00:00:38.62 bitrate=N/A speed=7.49x    frame= 1019 fps=180 q=-0.0 size=N/A time=00:00:42.50 bitrate=N/A speed=7.51x    frame= 1112 fps=180 q=-0.0 size=N/A time=00:00:46.37 bitrate=N/A speed= 7.5x    frame= 1208 fps=181 q=-0.0 size=N/A time=00:00:50.38 bitrate=N/A speed=7.53x    frame= 1299 fps=180 q=-0.0 size=N/A time=00:00:54.17 bitrate=N/A speed=7.51x    frame= 1401 fps=181 q=-0.0 size=N/A time=00:00:58.43 bitrate=N/A speed=7.56x    frame= 1492 fps=181 q=-0.0 size=N/A time=00:01:02.22 bitrate=N/A speed=7.54x    frame= 1590 fps=182 q=-0.0 size=N/A time=00:01:06.31 bitrate=N/A speed=7.57x    frame= 1684 fps=181 q=-0.0 size=N/A time=00:01:10.23 bitrate=N/A speed=7.57x    frame= 1777 fps=182 q=-0.0 size=N/A time=00:01:14.11 bitrate=N/A speed=7.57x    frame= 1877 fps=182 q=-0.0 size=N/A time=00:01:18.28 bitrate=N/A speed=7.59x    frame= 1972 fps=182 q=-0.0 size=N/A time=00:01:22.24 bitrate=N/A speed= 7.6x    frame= 2070 fps=182 q=-0.0 size=N/A time=00:01:26.33 bitrate=N/A speed=7.61x    frame= 2168 fps=183 q=-0.0 size=N/A time=00:01:30.42 bitrate=N/A speed=7.63x    frame= 2267 fps=183 q=-0.0 size=N/A time=00:01:34.55 bitrate=N/A speed=7.64x    frame= 2362 fps=183 q=-0.0 size=N/A time=00:01:38.51 bitrate=N/A speed=7.65x    frame= 2461 fps=184 q=-0.0 size=N/A time=00:01:42.64 bitrate=N/A speed=7.66x    frame= 2562 fps=184 q=-0.0 size=N/A time=00:01:46.85 bitrate=N/A speed=7.67x    frame= 2660 fps=184 q=-0.0 size=N/A time=00:01:50.94 bitrate=N/A speed=7.69x    frame= 2756 fps=184 q=-0.0 size=N/A time=00:01:54.94 bitrate=N/A speed=7.69x    frame= 2855 fps=185 q=-0.0 size=N/A time=00:01:59.07 bitrate=N/A speed= 7.7x    frame= 2951 fps=185 q=-0.0 size=N/A time=00:02:03.08 bitrate=N/A speed= 7.7x    frame= 3048 fps=185 q=-0.0 size=N/A time=00:02:07.12 bitrate=N/A speed=7.71x    frame= 3148 fps=185 q=-0.0 size=N/A time=00:02:11.29 bitrate=N/A speed=7.72x    frame= 3244 fps=185 q=-0.0 size=N/A time=00:02:15.30 bitrate=N/A speed=7.72x    frame= 3338 fps=185 q=-0.0 size=N/A time=00:02:19.22 bitrate=N/A speed=7.72x    frame= 3442 fps=185 q=-0.0 size=N/A time=00:02:23.56 bitrate=N/A speed=7.73x    frame= 3535 fps=185 q=-0.0 size=N/A time=00:02:27.43 bitrate=N/A speed=7.73x    frame= 3636 fps=186 q=-0.0 size=N/A time=00:02:31.65 bitrate=N/A speed=7.74x    frame= 3737 fps=186 q=-0.0 size=N/A time=00:02:35.86 bitrate=N/A speed=7.75x    frame= 3833 fps=186 q=-0.0 size=N/A time=00:02:39.86 bitrate=N/A speed=7.75x    frame= 3927 fps=186 q=-0.0 size=N/A time=00:02:43.78 bitrate=N/A speed=7.75x    frame= 4023 fps=186 q=-0.0 size=N/A time=00:02:47.79 bitrate=N/A speed=7.75x    frame= 4116 fps=186 q=-0.0 size=N/A time=00:02:51.67 bitrate=N/A speed=7.75x    frame= 4212 fps=186 q=-0.0 size=N/A time=00:02:55.67 bitrate=N/A speed=7.75x    frame= 4314 fps=186 q=-0.0 size=N/A time=00:02:59.92 bitrate=N/A speed=7.76x    frame= 4413 fps=186 q=-0.0 size=N/A time=00:03:04.05 bitrate=N/A speed=7.76x    frame= 4502 fps=186 q=-0.0 size=N/A time=00:03:07.77 bitrate=N/A speed=7.75x    frame= 4609 fps=186 q=-0.0 size=N/A time=00:03:12.23 bitrate=N/A speed=7.77x    frame= 4706 fps=186 q=-0.0 size=N/A time=00:03:16.27 bitrate=N/A speed=7.77x    frame= 4804 fps=186 q=-0.0 size=N/A time=00:03:20.36 bitrate=N/A speed=7.77x    frame= 4900 fps=186 q=-0.0 size=N/A time=00:03:24.37 bitrate=N/A speed=7.77x    frame= 4999 fps=186 q=-0.0 size=N/A time=00:03:28.49 bitrate=N/A speed=7.78x    frame= 5096 fps=186 q=-0.0 size=N/A time=00:03:32.54 bitrate=N/A speed=7.77x    frame= 5192 fps=186 q=-0.0 size=N/A time=00:03:36.54 bitrate=N/A speed=7.78x    frame= 5289 fps=186 q=-0.0 size=N/A time=00:03:40.59 bitrate=N/A speed=7.78x    frame= 5391 fps=187 q=-0.0 size=N/A time=00:03:44.84 bitrate=N/A speed=7.78x    frame= 5487 fps=187 q=-0.0 size=N/A time=00:03:48.85 bitrate=N/A speed=7.79x    frame= 5585 fps=187 q=-0.0 size=N/A time=00:03:52.94 bitrate=N/A speed=7.79x    frame= 5680 fps=187 q=-0.0 size=N/A time=00:03:56.90 bitrate=N/A speed=7.79x    frame= 5778 fps=187 q=-0.0 size=N/A time=00:04:00.99 bitrate=N/A speed=7.79x    frame= 5876 fps=187 q=-0.0 size=N/A time=00:04:05.07 bitrate=N/A speed=7.79x    frame= 5968 fps=187 q=-0.0 size=N/A time=00:04:08.91 bitrate=N/A speed=7.78x    frame= 6071 fps=187 q=-0.0 size=N/A time=00:04:13.21 bitrate=N/A speed=7.79x    frame= 6170 fps=187 q=-0.0 size=N/A time=00:04:17.34 bitrate=N/A speed= 7.8x    frame= 6264 fps=187 q=-0.0 size=N/A time=00:04:21.26 bitrate=N/A speed=7.79x    frame= 6363 fps=187 q=-0.0 size=N/A time=00:04:25.39 bitrate=N/A speed= 7.8x    frame= 6456 fps=187 q=-0.0 size=N/A time=00:04:29.26 bitrate=N/A speed=7.79x    frame= 6554 fps=187 q=-0.0 size=N/A time=00:04:33.35 bitrate=N/A speed=7.79x    frame= 6655 fps=187 q=-0.0 size=N/A time=00:04:37.56 bitrate=N/A speed= 7.8x    frame= 6750 fps=187 q=-0.0 size=N/A time=00:04:41.53 bitrate=N/A speed= 7.8x    frame= 6845 fps=187 q=-0.0 size=N/A time=00:04:45.49 bitrate=N/A speed= 7.8x    frame= 6943 fps=187 q=-0.0 size=N/A time=00:04:49.58 bitrate=N/A speed= 7.8x    frame= 7038 fps=187 q=-0.0 size=N/A time=00:04:53.54 bitrate=N/A speed= 7.8x    frame= 7137 fps=187 q=-0.0 size=N/A time=00:04:57.67 bitrate=N/A speed= 7.8x    frame= 7237 fps=187 q=-0.0 size=N/A time=00:05:01.84 bitrate=N/A speed= 7.8x    frame= 7334 fps=187 q=-0.0 size=N/A time=00:05:05.88 bitrate=N/A speed= 7.8x    frame= 7435 fps=187 q=-0.0 size=N/A time=00:05:10.10 bitrate=N/A speed=7.81x    frame= 7531 fps=187 q=-0.0 size=N/A time=00:05:14.10 bitrate=N/A speed=7.81x    frame= 7623 fps=187 q=-0.0 size=N/A time=00:05:17.94 bitrate=N/A speed= 7.8x    frame= 7722 fps=187 q=-0.0 size=N/A time=00:05:22.07 bitrate=N/A speed=7.81x    frame= 7819 fps=187 q=-0.0 size=N/A time=00:05:26.11 bitrate=N/A speed=7.81x    frame= 7910 fps=187 q=-0.0 size=N/A time=00:05:29.91 bitrate=N/A speed= 7.8x    frame= 8010 fps=187 q=-0.0 size=N/A time=00:05:34.08 bitrate=N/A speed= 7.8x    frame= 8107 fps=187 q=-0.0 size=N/A time=00:05:38.12 bitrate=N/A speed= 7.8x    frame= 8203 fps=187 q=-0.0 size=N/A time=00:05:42.13 bitrate=N/A speed=7.81x    frame= 8303 fps=187 q=-0.0 size=N/A time=00:05:46.30 bitrate=N/A speed=7.81x    frame= 8401 fps=187 q=-0.0 size=N/A time=00:05:50.39 bitrate=N/A speed=7.81x    frame= 8500 fps=187 q=-0.0 size=N/A time=00:05:54.52 bitrate=N/A speed=7.81x    frame= 8605 fps=187 q=-0.0 size=N/A time=00:05:58.90 bitrate=N/A speed=7.82x    frame= 8703 fps=187 q=-0.0 size=N/A time=00:06:02.98 bitrate=N/A speed=7.82x    frame= 8802 fps=188 q=-0.0 size=N/A time=00:06:07.11 bitrate=N/A speed=7.82x    frame= 8897 fps=188 q=-0.0 size=N/A time=00:06:11.07 bitrate=N/A speed=7.82x    frame= 8988 fps=187 q=-0.0 size=N/A time=00:06:14.87 bitrate=N/A speed=7.82x    frame= 9090 fps=188 q=-0.0 size=N/A time=00:06:19.12 bitrate=N/A speed=7.82x    frame= 9181 fps=187 q=-0.0 size=N/A time=00:06:22.92 bitrate=N/A speed=7.82x    frame= 9277 fps=187 q=-0.0 size=N/A time=00:06:26.92 bitrate=N/A speed=7.81x    frame= 9371 fps=187 q=-0.0 size=N/A time=00:06:30.84 bitrate=N/A speed=7.81x    frame= 9462 fps=187 q=-0.0 size=N/A time=00:06:34.64 bitrate=N/A speed=7.81x    frame= 9570 fps=187 q=-0.0 size=N/A time=00:06:39.14 bitrate=N/A speed=7.82x    frame= 9671 fps=188 q=-0.0 size=N/A time=00:06:43.36 bitrate=N/A speed=7.82x    frame= 9768 fps=188 q=-0.0 size=N/A time=00:06:47.40 bitrate=N/A speed=7.82x    frame= 9869 fps=188 q=-0.0 size=N/A time=00:06:51.61 bitrate=N/A speed=7.83x    frame= 9969 fps=188 q=-0.0 size=N/A time=00:06:55.79 bitrate=N/A speed=7.83x    frame=10065 fps=188 q=-0.0 size=N/A time=00:06:59.79 bitrate=N/A speed=7.83x    frame=10166 fps=188 q=-0.0 size=N/A time=00:07:04.00 bitrate=N/A speed=7.83x    frame=10260 fps=188 q=-0.0 size=N/A time=00:07:07.92 bitrate=N/A speed=7.83x    frame=10360 fps=188 q=-0.0 size=N/A time=00:07:12.09 bitrate=N/A speed=7.83x    frame=10456 fps=188 q=-0.0 size=N/A time=00:07:16.10 bitrate=N/A speed=7.83x    frame=10557 fps=188 q=-0.0 size=N/A time=00:07:20.31 bitrate=N/A speed=7.83x    frame=10647 fps=188 q=-0.0 size=N/A time=00:07:24.06 bitrate=N/A speed=7.83x    frame=10745 fps=188 q=-0.0 size=N/A time=00:07:28.15 bitrate=N/A speed=7.83x    frame=10861 fps=188 q=-0.0 size=N/A time=00:07:32.99 bitrate=N/A speed=7.84x    frame=10959 fps=188 q=-0.0 size=N/A time=00:07:37.08 bitrate=N/A speed=7.84x    frame=11059 fps=188 q=-0.0 size=N/A time=00:07:41.25 bitrate=N/A speed=7.85x    frame=11158 fps=188 q=-0.0 size=N/A time=00:07:45.38 bitrate=N/A speed=7.85x    frame=11259 fps=188 q=-0.0 size=N/A time=00:07:49.59 bitrate=N/A speed=7.85x    frame=11355 fps=188 q=-0.0 size=N/A time=00:07:53.59 bitrate=N/A speed=7.85x    frame=11455 fps=188 q=-0.0 size=N/A time=00:07:57.76 bitrate=N/A speed=7.85x    frame=11557 fps=188 q=-0.0 size=N/A time=00:08:02.02 bitrate=N/A speed=7.85x    frame=11655 fps=188 q=-0.0 size=N/A time=00:08:06.11 bitrate=N/A speed=7.86x    frame=11760 fps=188 q=-0.0 size=N/A time=00:08:10.49 bitrate=N/A speed=7.86x    frame=11859 fps=189 q=-0.0 size=N/A time=00:08:14.61 bitrate=N/A speed=7.86x    frame=11959 fps=189 q=-0.0 size=N/A time=00:08:18.78 bitrate=N/A speed=7.86x    frame=12052 fps=188 q=-0.0 size=N/A time=00:08:22.66 bitrate=N/A speed=7.86x    frame=12161 fps=189 q=-0.0 size=N/A time=00:08:27.21 bitrate=N/A speed=7.87x    frame=12261 fps=189 q=-0.0 size=N/A time=00:08:31.38 bitrate=N/A speed=7.87x    frame=12362 fps=189 q=-0.0 size=N/A time=00:08:35.59 bitrate=N/A speed=7.87x    frame=12459 fps=189 q=-0.0 size=N/A time=00:08:39.64 bitrate=N/A speed=7.87x    frame=12566 fps=189 q=-0.0 size=N/A time=00:08:44.10 bitrate=N/A speed=7.88x    frame=12665 fps=189 q=-0.0 size=N/A time=00:08:48.23 bitrate=N/A speed=7.88x    frame=12769 fps=189 q=-0.0 size=N/A time=00:08:52.57 bitrate=N/A speed=7.88x    frame=12866 fps=189 q=-0.0 size=N/A time=00:08:56.61 bitrate=N/A speed=7.88x    frame=12965 fps=189 q=-0.0 size=N/A time=00:09:00.74 bitrate=N/A speed=7.88x    frame=13064 fps=189 q=-0.0 size=N/A time=00:09:04.87 bitrate=N/A speed=7.88x    frame=13169 fps=189 q=-0.0 size=N/A time=00:09:09.25 bitrate=N/A speed=7.89x    frame=13271 fps=189 q=-0.0 size=N/A time=00:09:13.51 bitrate=N/A speed=7.89x    frame=13356 fps=189 q=-0.0 size=N/A time=00:09:17.05 bitrate=N/A speed=7.88x    frame=13452 fps=189 q=-0.0 size=N/A time=00:09:21.06 bitrate=N/A speed=7.88x    frame=13537 fps=189 q=-0.0 size=N/A time=00:09:24.60 bitrate=N/A speed=7.88x    frame=13625 fps=189 q=-0.0 size=N/A time=00:09:28.27 bitrate=N/A speed=7.87x    frame=13706 fps=188 q=-0.0 size=N/A time=00:09:31.65 bitrate=N/A speed=7.86x    frame=13800 fps=188 q=-0.0 size=N/A time=00:09:35.57 bitrate=N/A speed=7.86x    frame=13903 fps=189 q=-0.0 size=N/A time=00:09:39.87 bitrate=N/A speed=7.86x    frame=14003 fps=189 q=-0.0 size=N/A time=00:09:44.04 bitrate=N/A speed=7.86x    frame=14098 fps=189 q=-0.0 size=N/A time=00:09:48.00 bitrate=N/A speed=7.86x    frame=14195 fps=189 q=-0.0 size=N/A time=00:09:52.04 bitrate=N/A speed=7.86x    frame=14286 fps=188 q=-0.0 size=N/A time=00:09:55.84 bitrate=N/A speed=7.86x    frame=14401 fps=189 q=-0.0 size=N/A time=00:10:00.64 bitrate=N/A speed=7.87x    frame=14500 fps=189 q=-0.0 size=N/A time=00:10:04.77 bitrate=N/A speed=7.87x    frame=14603 fps=189 q=-0.0 size=N/A time=00:10:09.06 bitrate=N/A speed=7.87x    frame=14699 fps=189 q=-0.0 size=N/A time=00:10:13.07 bitrate=N/A speed=7.87x    frame=14801 fps=189 q=-0.0 size=N/A time=00:10:17.32 bitrate=N/A speed=7.88x    frame=14896 fps=189 q=-0.0 size=N/A time=00:10:21.28 bitrate=N/A speed=7.87x    frame=14990 fps=189 q=-0.0 size=N/A time=00:10:25.20 bitrate=N/A speed=7.87x    frame=15086 fps=189 q=-0.0 size=N/A time=00:10:29.21 bitrate=N/A speed=7.87x    frame=15176 fps=189 q=-0.0 size=N/A time=00:10:32.96 bitrate=N/A speed=7.87x    frame=15280 fps=189 q=-0.0 size=N/A time=00:10:37.30 bitrate=N/A speed=7.87x    frame=15388 fps=189 q=-0.0 size=N/A time=00:10:41.80 bitrate=N/A speed=7.88x    frame=15488 fps=189 q=-0.0 size=N/A time=00:10:45.97 bitrate=N/A speed=7.88x    frame=15583 fps=189 q=-0.0 size=N/A time=00:10:49.94 bitrate=N/A speed=7.88x    frame=15678 fps=189 q=-0.0 size=N/A time=00:10:53.90 bitrate=N/A speed=7.88x    frame=15781 fps=189 q=-0.0 size=N/A time=00:10:58.19 bitrate=N/A speed=7.88x    frame=15882 fps=189 q=-0.0 size=N/A time=00:11:02.41 bitrate=N/A speed=7.88x    frame=15984 fps=189 q=-0.0 size=N/A time=00:11:06.66 bitrate=N/A speed=7.88x    frame=16084 fps=189 q=-0.0 size=N/A time=00:11:10.83 bitrate=N/A speed=7.88x    frame=16187 fps=189 q=-0.0 size=N/A time=00:11:15.13 bitrate=N/A speed=7.89x    frame=16287 fps=189 q=-0.0 size=N/A time=00:11:19.30 bitrate=N/A speed=7.89x    frame=16384 fps=189 q=-0.0 size=N/A time=00:11:23.34 bitrate=N/A speed=7.89x    frame=16490 fps=189 q=-0.0 size=N/A time=00:11:27.77 bitrate=N/A speed=7.89x    frame=16591 fps=189 q=-0.0 size=N/A time=00:11:31.98 bitrate=N/A speed=7.89x    frame=16690 fps=189 q=-0.0 size=N/A time=00:11:36.11 bitrate=N/A speed=7.89x    frame=16799 fps=189 q=-0.0 size=N/A time=00:11:40.65 bitrate=N/A speed= 7.9x    frame=16897 fps=189 q=-0.0 size=N/A time=00:11:44.74 bitrate=N/A speed= 7.9x    frame=16994 fps=189 q=-0.0 size=N/A time=00:11:48.79 bitrate=N/A speed= 7.9x    frame=17094 fps=189 q=-0.0 size=N/A time=00:11:52.96 bitrate=N/A speed= 7.9x    frame=17197 fps=189 q=-0.0 size=N/A time=00:11:57.25 bitrate=N/A speed= 7.9x    frame=17301 fps=190 q=-0.0 size=N/A time=00:12:01.59 bitrate=N/A speed= 7.9x    frame=17399 fps=190 q=-0.0 size=N/A time=00:12:05.68 bitrate=N/A speed= 7.9x    frame=17499 fps=190 q=-0.0 size=N/A time=00:12:09.85 bitrate=N/A speed=7.91x    frame=17592 fps=189 q=-0.0 size=N/A time=00:12:13.73 bitrate=N/A speed= 7.9x    frame=17688 fps=189 q=-0.0 size=N/A time=00:12:17.73 bitrate=N/A speed= 7.9x    frame=17789 fps=190 q=-0.0 size=N/A time=00:12:21.94 bitrate=N/A speed= 7.9x    frame=17889 fps=190 q=-0.0 size=N/A time=00:12:26.12 bitrate=N/A speed= 7.9x    frame=17987 fps=190 q=-0.0 size=N/A time=00:12:30.20 bitrate=N/A speed= 7.9x    frame=18077 fps=189 q=-0.0 size=N/A time=00:12:33.96 bitrate=N/A speed= 7.9x    frame=18193 fps=190 q=-0.0 size=N/A time=00:12:38.79 bitrate=N/A speed=7.91x    frame=18298 fps=190 q=-0.0 size=N/A time=00:12:43.17 bitrate=N/A speed=7.91x    frame=18396 fps=190 q=-0.0 size=N/A time=00:12:47.26 bitrate=N/A speed=7.91x    frame=18496 fps=190 q=-0.0 size=N/A time=00:12:51.43 bitrate=N/A speed=7.91x    frame=18594 fps=190 q=-0.0 size=N/A time=00:12:55.52 bitrate=N/A speed=7.91x    frame=18694 fps=190 q=-0.0 size=N/A time=00:12:59.69 bitrate=N/A speed=7.91x    frame=18789 fps=190 q=-0.0 size=N/A time=00:13:03.65 bitrate=N/A speed=7.91x    frame=18889 fps=190 q=-0.0 size=N/A time=00:13:07.82 bitrate=N/A speed=7.91x    frame=18983 fps=190 q=-0.0 size=N/A time=00:13:11.74 bitrate=N/A speed=7.91x    frame=19077 fps=190 q=-0.0 size=N/A time=00:13:15.66 bitrate=N/A speed=7.91x    frame=19175 fps=190 q=-0.0 size=N/A time=00:13:19.75 bitrate=N/A speed=7.91x    frame=19265 fps=190 q=-0.0 size=N/A time=00:13:23.51 bitrate=N/A speed=7.91x    frame=19368 fps=190 q=-0.0 size=N/A time=00:13:27.80 bitrate=N/A speed=7.91x    frame=19456 fps=190 q=-0.0 size=N/A time=00:13:31.47 bitrate=N/A speed=7.91x    frame=19546 fps=189 q=-0.0 size=N/A time=00:13:35.23 bitrate=N/A speed= 7.9x    frame=19645 fps=189 q=-0.0 size=N/A time=00:13:39.36 bitrate=N/A speed= 7.9x    frame=19743 fps=189 q=-0.0 size=N/A time=00:13:43.44 bitrate=N/A speed= 7.9x    frame=19840 fps=189 q=-0.0 size=N/A time=00:13:47.49 bitrate=N/A speed= 7.9x    frame=19940 fps=189 q=-0.0 size=N/A time=00:13:51.66 bitrate=N/A speed= 7.9x    frame=20039 fps=190 q=-0.0 size=N/A time=00:13:55.79 bitrate=N/A speed= 7.9x    frame=20134 fps=189 q=-0.0 size=N/A time=00:13:59.75 bitrate=N/A speed= 7.9x    frame=20243 fps=190 q=-0.0 size=N/A time=00:14:04.30 bitrate=N/A speed=7.91x    frame=20342 fps=190 q=-0.0 size=N/A time=00:14:08.43 bitrate=N/A speed=7.91x    frame=20440 fps=190 q=-0.0 size=N/A time=00:14:12.51 bitrate=N/A speed=7.91x    frame=20538 fps=190 q=-0.0 size=N/A time=00:14:16.60 bitrate=N/A speed=7.91x    frame=20636 fps=190 q=-0.0 size=N/A time=00:14:20.69 bitrate=N/A speed=7.91x    frame=20740 fps=190 q=-0.0 size=N/A time=00:14:25.03 bitrate=N/A speed=7.91x    frame=20837 fps=190 q=-0.0 size=N/A time=00:14:29.07 bitrate=N/A speed=7.91x    frame=20940 fps=190 q=-0.0 size=N/A time=00:14:33.37 bitrate=N/A speed=7.91x    frame=21036 fps=190 q=-0.0 size=N/A time=00:14:37.37 bitrate=N/A speed=7.91x    frame=21138 fps=190 q=-0.0 size=N/A time=00:14:41.63 bitrate=N/A speed=7.91x    frame=21238 fps=190 q=-0.0 size=N/A time=00:14:45.80 bitrate=N/A speed=7.91x    frame=21343 fps=190 q=-0.0 size=N/A time=00:14:50.18 bitrate=N/A speed=7.92x    frame=21439 fps=190 q=-0.0 size=N/A time=00:14:54.18 bitrate=N/A speed=7.92x    frame=21539 fps=190 q=-0.0 size=N/A time=00:14:58.35 bitrate=N/A speed=7.92x    frame=21637 fps=190 q=-0.0 size=N/A time=00:15:02.44 bitrate=N/A speed=7.92x    frame=21737 fps=190 q=-0.0 size=N/A time=00:15:06.61 bitrate=N/A speed=7.92x    frame=21827 fps=190 q=-0.0 size=N/A time=00:15:10.36 bitrate=N/A speed=7.91x    frame=21935 fps=190 q=-0.0 size=N/A time=00:15:14.87 bitrate=N/A speed=7.92x    frame=22041 fps=190 q=-0.0 size=N/A time=00:15:19.29 bitrate=N/A speed=7.92x    frame=22140 fps=190 q=-0.0 size=N/A time=00:15:23.42 bitrate=N/A speed=7.92x    frame=22238 fps=190 q=-0.0 size=N/A time=00:15:27.50 bitrate=N/A speed=7.92x    frame=22342 fps=190 q=-0.0 size=N/A time=00:15:31.84 bitrate=N/A speed=7.92x    frame=22436 fps=190 q=-0.0 size=N/A time=00:15:35.76 bitrate=N/A speed=7.92x    frame=22541 fps=190 q=-0.0 size=N/A time=00:15:40.14 bitrate=N/A speed=7.92x    frame=22627 fps=190 q=-0.0 size=N/A time=00:15:43.73 bitrate=N/A speed=7.92x    frame=22743 fps=190 q=-0.0 size=N/A time=00:15:48.57 bitrate=N/A speed=7.93x    frame=22840 fps=190 q=-0.0 size=N/A time=00:15:52.61 bitrate=N/A speed=7.93x    frame=22929 fps=190 q=-0.0 size=N/A time=00:15:56.33 bitrate=N/A speed=7.92x    frame=23029 fps=190 q=-0.0 size=N/A time=00:16:00.50 bitrate=N/A speed=7.92x    frame=23127 fps=190 q=-0.0 size=N/A time=00:16:04.58 bitrate=N/A speed=7.92x    frame=23230 fps=190 q=-0.0 size=N/A time=00:16:08.88 bitrate=N/A speed=7.93x    frame=23327 fps=190 q=-0.0 size=N/A time=00:16:12.93 bitrate=N/A speed=7.93x    frame=23423 fps=190 q=-0.0 size=N/A time=00:16:16.93 bitrate=N/A speed=7.93x    frame=23505 fps=190 q=-0.0 size=N/A time=00:16:20.35 bitrate=N/A speed=7.92x    frame=23600 fps=190 q=-0.0 size=N/A time=00:16:24.31 bitrate=N/A speed=7.92x    frame=23695 fps=190 q=-0.0 size=N/A time=00:16:28.27 bitrate=N/A speed=7.92x    frame=23791 fps=190 q=-0.0 size=N/A time=00:16:32.28 bitrate=N/A speed=7.92x    frame=23878 fps=190 q=-0.0 size=N/A time=00:16:35.91 bitrate=N/A speed=7.91x    frame=23977 fps=190 q=-0.0 size=N/A time=00:16:40.04 bitrate=N/A speed=7.91x    frame=24068 fps=190 q=-0.0 size=N/A time=00:16:43.83 bitrate=N/A speed=7.91x    frame=24155 fps=190 q=-0.0 size=N/A time=00:16:47.46 bitrate=N/A speed=7.91x    frame=24249 fps=190 q=-0.0 size=N/A time=00:16:51.38 bitrate=N/A speed=7.91x    frame=24345 fps=190 q=-0.0 size=N/A time=00:16:55.38 bitrate=N/A speed=7.91x    frame=24441 fps=190 q=-0.0 size=N/A time=00:16:59.39 bitrate=N/A speed= 7.9x    frame=24538 fps=190 q=-0.0 size=N/A time=00:17:03.43 bitrate=N/A speed= 7.9x    frame=24628 fps=189 q=-0.0 size=N/A time=00:17:07.19 bitrate=N/A speed= 7.9x    frame=24729 fps=189 q=-0.0 size=N/A time=00:17:11.40 bitrate=N/A speed= 7.9x    frame=24823 fps=189 q=-0.0 size=N/A time=00:17:15.32 bitrate=N/A speed= 7.9x    frame=24925 fps=189 q=-0.0 size=N/A time=00:17:19.58 bitrate=N/A speed= 7.9x    frame=25021 fps=189 q=-0.0 size=N/A time=00:17:23.58 bitrate=N/A speed= 7.9x    frame=25120 fps=189 q=-0.0 size=N/A time=00:17:27.71 bitrate=N/A speed= 7.9x    frame=25215 fps=189 q=-0.0 size=N/A time=00:17:31.67 bitrate=N/A speed= 7.9x    frame=25312 fps=189 q=-0.0 size=N/A time=00:17:35.72 bitrate=N/A speed= 7.9x    frame=25400 fps=189 q=-0.0 size=N/A time=00:17:39.39 bitrate=N/A speed= 7.9x    frame=25506 fps=189 q=-0.0 size=N/A time=00:17:43.81 bitrate=N/A speed= 7.9x    frame=25595 fps=189 q=-0.0 size=N/A time=00:17:47.52 bitrate=N/A speed= 7.9x    frame=25692 fps=189 q=-0.0 size=N/A time=00:17:51.57 bitrate=N/A speed= 7.9x    frame=25791 fps=189 q=-0.0 size=N/A time=00:17:55.69 bitrate=N/A speed= 7.9x    frame=25884 fps=189 q=-0.0 size=N/A time=00:17:59.57 bitrate=N/A speed= 7.9x    frame=25982 fps=189 q=-0.0 size=N/A time=00:18:03.66 bitrate=N/A speed= 7.9x    frame=26075 fps=189 q=-0.0 size=N/A time=00:18:07.54 bitrate=N/A speed= 7.9x    frame=26173 fps=189 q=-0.0 size=N/A time=00:18:11.63 bitrate=N/A speed= 7.9x    frame=26272 fps=189 q=-0.0 size=N/A time=00:18:15.76 bitrate=N/A speed= 7.9x    frame=26362 fps=189 q=-0.0 size=N/A time=00:18:19.51 bitrate=N/A speed=7.89x    frame=26456 fps=189 q=-0.0 size=N/A time=00:18:23.43 bitrate=N/A speed=7.89x    frame=26566 fps=189 q=-0.0 size=N/A time=00:18:28.02 bitrate=N/A speed= 7.9x    frame=26670 fps=189 q=-0.0 size=N/A time=00:18:32.36 bitrate=N/A speed= 7.9x    frame=26769 fps=189 q=-0.0 size=N/A time=00:18:36.49 bitrate=N/A speed= 7.9x    frame=26865 fps=189 q=-0.0 size=N/A time=00:18:40.49 bitrate=N/A speed= 7.9x    frame=26965 fps=189 q=-0.0 size=N/A time=00:18:44.66 bitrate=N/A speed= 7.9x    frame=27057 fps=189 q=-0.0 size=N/A time=00:18:48.50 bitrate=N/A speed= 7.9x    frame=27155 fps=189 q=-0.0 size=N/A time=00:18:52.58 bitrate=N/A speed= 7.9x    frame=27268 fps=189 q=-0.0 size=N/A time=00:18:57.30 bitrate=N/A speed= 7.9x    frame=27370 fps=189 q=-0.0 size=N/A time=00:19:01.55 bitrate=N/A speed= 7.9x    frame=27468 fps=190 q=-0.0 size=N/A time=00:19:05.64 bitrate=N/A speed= 7.9x    frame=27564 fps=190 q=-0.0 size=N/A time=00:19:09.64 bitrate=N/A speed= 7.9x    frame=27671 fps=190 q=-0.0 size=N/A time=00:19:14.11 bitrate=N/A speed=7.91x    frame=27772 fps=190 q=-0.0 size=N/A time=00:19:18.32 bitrate=N/A speed=7.91x    frame=27871 fps=190 q=-0.0 size=N/A time=00:19:22.45 bitrate=N/A speed=7.91x    frame=27973 fps=190 q=-0.0 size=N/A time=00:19:26.70 bitrate=N/A speed=7.91x    frame=28066 fps=190 q=-0.0 size=N/A time=00:19:30.58 bitrate=N/A speed=7.91x    frame=28167 fps=190 q=-0.0 size=N/A time=00:19:34.79 bitrate=N/A speed=7.91x    frame=28260 fps=190 q=-0.0 size=N/A time=00:19:38.67 bitrate=N/A speed=7.91x    frame=28370 fps=190 q=-0.0 size=N/A time=00:19:43.26 bitrate=N/A speed=7.91x    frame=28472 fps=190 q=-0.0 size=N/A time=00:19:47.51 bitrate=N/A speed=7.91x    frame=28570 fps=190 q=-0.0 size=N/A time=00:19:51.60 bitrate=N/A speed=7.91x    frame=28666 fps=190 q=-0.0 size=N/A time=00:19:55.61 bitrate=N/A speed=7.91x    frame=28757 fps=190 q=-0.0 size=N/A time=00:19:59.40 bitrate=N/A speed=7.91x    frame=28865 fps=190 q=-0.0 size=N/A time=00:20:03.91 bitrate=N/A speed=7.91x    frame=28952 fps=190 q=-0.0 size=N/A time=00:20:07.53 bitrate=N/A speed=7.91x    frame=29061 fps=190 q=-0.0 size=N/A time=00:20:12.08 bitrate=N/A speed=7.91x    frame=29153 fps=190 q=-0.0 size=N/A time=00:20:15.92 bitrate=N/A speed=7.91x    frame=29245 fps=190 q=-0.0 size=N/A time=00:20:19.76 bitrate=N/A speed=7.91x    frame=29342 fps=190 q=-0.0 size=N/A time=00:20:23.80 bitrate=N/A speed=7.91x    frame=29437 fps=190 q=-0.0 size=N/A time=00:20:27.76 bitrate=N/A speed=7.91x    frame=29531 fps=190 q=-0.0 size=N/A time=00:20:31.68 bitrate=N/A speed=7.91x    frame=29627 fps=190 q=-0.0 size=N/A time=00:20:35.69 bitrate=N/A speed=7.91x    frame=29722 fps=190 q=-0.0 size=N/A time=00:20:39.65 bitrate=N/A speed=7.91x    frame=29809 fps=189 q=-0.0 size=N/A time=00:20:43.28 bitrate=N/A speed= 7.9x    frame=29907 fps=189 q=-0.0 size=N/A time=00:20:47.37 bitrate=N/A speed= 7.9x    frame=29984 fps=189 q=-0.0 size=N/A time=00:20:50.58 bitrate=N/A speed= 7.9x    frame=30064 fps=189 q=-0.0 size=N/A time=00:20:53.91 bitrate=N/A speed=7.89x    frame=30150 fps=189 q=-0.0 size=N/A time=00:20:57.50 bitrate=N/A speed=7.89x    frame=30226 fps=189 q=-0.0 size=N/A time=00:21:00.67 bitrate=N/A speed=7.88x    frame=30304 fps=189 q=-0.0 size=N/A time=00:21:03.92 bitrate=N/A speed=7.88x    frame=30388 fps=189 q=-0.0 size=N/A time=00:21:07.43 bitrate=N/A speed=7.88x    frame=30468 fps=189 q=-0.0 size=N/A time=00:21:10.76 bitrate=N/A speed=7.87x    frame=30542 fps=189 q=-0.0 size=N/A time=00:21:13.85 bitrate=N/A speed=7.86x    frame=30635 fps=189 q=-0.0 size=N/A time=00:21:17.73 bitrate=N/A speed=7.86x    frame=30727 fps=189 q=-0.0 size=N/A time=00:21:21.57 bitrate=N/A speed=7.86x    frame=30806 fps=188 q=-0.0 size=N/A time=00:21:24.86 bitrate=N/A speed=7.86x    frame=30887 fps=188 q=-0.0 size=N/A time=00:21:28.24 bitrate=N/A speed=7.85x    frame=30968 fps=188 q=-0.0 size=N/A time=00:21:31.62 bitrate=N/A speed=7.85x    frame=31057 fps=188 q=-0.0 size=N/A time=00:21:35.33 bitrate=N/A speed=7.85x    frame=31146 fps=188 q=-0.0 size=N/A time=00:21:39.04 bitrate=N/A speed=7.85x    frame=31235 fps=188 q=-0.0 size=N/A time=00:21:42.75 bitrate=N/A speed=7.84x    frame=31331 fps=188 q=-0.0 size=N/A time=00:21:46.76 bitrate=N/A speed=7.84x    frame=31418 fps=188 q=-0.0 size=N/A time=00:21:50.39 bitrate=N/A speed=7.84x    frame=31505 fps=188 q=-0.0 size=N/A time=00:21:54.02 bitrate=N/A speed=7.84x    frame=31585 fps=188 q=-0.0 size=N/A time=00:21:57.35 bitrate=N/A speed=7.83x    frame=31658 fps=188 q=-0.0 size=N/A time=00:22:00.40 bitrate=N/A speed=7.83x    frame=31740 fps=188 q=-0.0 size=N/A time=00:22:03.82 bitrate=N/A speed=7.82x    frame=31832 fps=188 q=-0.0 size=N/A time=00:22:07.65 bitrate=N/A speed=7.82x    frame=31905 fps=187 q=-0.0 size=N/A time=00:22:10.70 bitrate=N/A speed=7.82x    frame=31991 fps=187 q=-0.0 size=N/A time=00:22:14.29 bitrate=N/A speed=7.82x    frame=32065 fps=187 q=-0.0 size=N/A time=00:22:17.37 bitrate=N/A speed=7.81x    frame=32149 fps=187 q=-0.0 size=N/A time=00:22:20.88 bitrate=N/A speed=7.81x    frame=32232 fps=187 q=-0.0 size=N/A time=00:22:24.34 bitrate=N/A speed= 7.8x    frame=32314 fps=187 q=-0.0 size=N/A time=00:22:27.76 bitrate=N/A speed= 7.8x    frame=32393 fps=187 q=-0.0 size=N/A time=00:22:31.05 bitrate=N/A speed= 7.8x    frame=32478 fps=187 q=-0.0 size=N/A time=00:22:34.60 bitrate=N/A speed=7.79x    frame=32564 fps=187 q=-0.0 size=N/A time=00:22:38.19 bitrate=N/A speed=7.79x    frame=32646 fps=187 q=-0.0 size=N/A time=00:22:41.61 bitrate=N/A speed=7.79x    frame=32728 fps=187 q=-0.0 size=N/A time=00:22:45.03 bitrate=N/A speed=7.78x    frame=32807 fps=187 q=-0.0 size=N/A time=00:22:48.32 bitrate=N/A speed=7.78x    frame=32891 fps=186 q=-0.0 size=N/A time=00:22:51.82 bitrate=N/A speed=7.78x    frame=32969 fps=186 q=-0.0 size=N/A time=00:22:55.08 bitrate=N/A speed=7.77x    frame=33053 fps=186 q=-0.0 size=N/A time=00:22:58.58 bitrate=N/A speed=7.77x    frame=33127 fps=186 q=-0.0 size=N/A time=00:23:01.67 bitrate=N/A speed=7.76x    frame=33212 fps=186 q=-0.0 size=N/A time=00:23:05.21 bitrate=N/A speed=7.76x    frame=33293 fps=186 q=-0.0 size=N/A time=00:23:08.59 bitrate=N/A speed=7.76x    frame=33364 fps=186 q=-0.0 size=N/A time=00:23:11.55 bitrate=N/A speed=7.75x    frame=33460 fps=186 q=-0.0 size=N/A time=00:23:15.56 bitrate=N/A speed=7.75x    frame=33553 fps=186 q=-0.0 size=N/A time=00:23:19.43 bitrate=N/A speed=7.75x    frame=33642 fps=186 q=-0.0 size=N/A time=00:23:23.15 bitrate=N/A speed=7.75x    frame=33735 fps=186 q=-0.0 size=N/A time=00:23:27.03 bitrate=N/A speed=7.75x    frame=33825 fps=186 q=-0.0 size=N/A time=00:23:30.78 bitrate=N/A speed=7.75x    frame=33918 fps=186 q=-0.0 size=N/A time=00:23:34.66 bitrate=N/A speed=7.75x    frame=34005 fps=186 q=-0.0 size=N/A time=00:23:38.29 bitrate=N/A speed=7.75x    [Parsed_ssim_10 @ 000001193c64b000] SSIM Y:0.993616 (21.948896) U:0.995340 (23.316063) V:0.995013 (23.021738) All:0.994136 (22.318065)
[out#0/null @ 0000011934b1ee80] video:14629KiB audio:266252KiB subtitle:0KiB other streams:0KiB global headers:0KiB muxing overhead: unknown
frame=34045 fps=186 q=-0.0 Lsize=N/A time=00:23:39.96 bitrate=N/A speed=7.75x    
